<svg xmlns="http://www.w3.org/2000/svg" viewBox="0 0 889.94 597.99"><defs><style>.cls-1{fill:#ffe2db;}.cls-2{font-size:42px;font-family:BelyDisplay-Regular, Bely Display;}.cls-2,.cls-5{fill:#f7b000;}.cls-3{letter-spacing:-0.01em;}.cls-4{letter-spacing:-0.02em;}.cls-6{fill:none;stroke:#f7b000;stroke-miterlimit:10;stroke-width:0.5px;}</style></defs><title>homepage</title>

<g id="circle"><path class="cls-1" d="M986.82,421.21c-1.1,33-6.39,66.76-16.9,98.08-11.19,33.31-29.15,63.17-54,88.07C893.7,629.61,867.06,647.82,839,661.9a408.13,408.13,0,0,1-91.76,33.41c-32.13,7.35-65.73,11.11-98.68,8.7-34.93-2.57-68.77-11-99.92-27.3-16.35-8.54-31.16-19.63-45.38-31.3-13.17-10.79-26-22.25-38.07-34.22-13.14-13-25.34-27.51-34.4-43.67a198.29,198.29,0,0,1-19.71-50.87c-8.69-36.59-8.28-74.32-4.74-111.52q2.56-26.92,6.12-53.78c2.6-19.76,5.49-39.55,11.7-58.56A224.07,224.07,0,0,1,476,207.19c3.5-3.63,7.13-7.13,10.85-10.5a236.7,236.7,0,0,1,63.22-52.46C582.35,126,618.17,116.14,655,113.16c71.64-5.81,140.37,21.19,199.17,60.21A510.05,510.05,0,0,1,899.54,207a244.42,244.42,0,0,1,36.92,39c18.68,24.36,31.82,53.13,39.91,82.67A313.24,313.24,0,0,1,986.82,421.21Z" transform="translate(-97.07 -106.75)"/></g>


<g id="fullname"><text class="cls-2" transform="translate(0 36.75)">K<tspan class="cls-3" x="35.41" y="0">a</tspan><tspan x="57.96" y="0">cie </tspan><tspan class="cls-4" x="124.23" y="0">C</tspan><tspan x="152.96" y="0">ooper</tspan></text></g>

<g id="flowers-01"><path class="cls-5" d="M703,700.39a14.78,14.78,0,0,1-6.85-5,.77.77,0,0,0-1-.27.76.76,0,0,0-.27,1,16.61,16.61,0,0,0,7.74,5.68.76.76,0,0,0,.92-.52.77.77,0,0,0-.52-.92Z" transform="translate(-97.07 -106.75)"/><path class="cls-5" d="M786.47,681.54c-1.35-1.77-2.66-3.56-3.85-5.44a.74.74,0,1,0-1.28.75c1.18,1.88,2.5,3.67,3.84,5.44a.75.75,0,1,0,1.29-.75Z" transform="translate(-97.07 -106.75)"/><path class="cls-5" d="M636.13,702.53a25.18,25.18,0,0,1-3.7-4.77.76.76,0,0,0-1-.26.75.75,0,0,0-.27,1,27.18,27.18,0,0,0,3.94,5.06.74.74,0,1,0,1-1.05Z" transform="translate(-97.07 -106.75)"/><path class="cls-5" d="M849.51,655a22,22,0,0,0,.9-14.09.74.74,0,0,0-1.43.4,20.69,20.69,0,0,1-.91,13.29c-.37.88,1.07,1.27,1.44.4Z" transform="translate(-97.07 -106.75)"/><path class="cls-5" d="M507.2,644.63c-4.08-6.12-4-13.85-2.47-20.79.2-.93-1.23-1.33-1.44-.39-1.61,7.31-1.67,15.48,2.62,21.93.53.8,1.82,0,1.29-.75Z" transform="translate(-97.07 -106.75)"/><path class="cls-5" d="M567.76,684.61a15.78,15.78,0,0,0,1.39-7,.75.75,0,0,0-1.49,0,14.14,14.14,0,0,1-1.18,6.22.76.76,0,0,0,.27,1,.74.74,0,0,0,1-.26Z" transform="translate(-97.07 -106.75)"/><path class="cls-6" d="M697.06,614.85" transform="translate(-97.07 -106.75)"/></g>

<g id="flowers-02"><path class="cls-5" d="M703,700.39a15.3,15.3,0,0,1-10-13.61c0-1-1.52-1-1.49,0a16.83,16.83,0,0,0,11.12,15.05c.91.31,1.3-1.12.4-1.44Z" transform="translate(-97.07 -106.75)"/><path class="cls-5" d="M786.47,681.54c-3.89-5.12-8.43-11.26-7.45-18.07.13-.94-1.3-1.34-1.44-.4-1.05,7.32,3.4,13.69,7.6,19.22.57.75,1.87,0,1.29-.75Z" transform="translate(-97.07 -106.75)"/><path class="cls-5" d="M695.11,691.64a14,14,0,0,1,5.76-5.3c2.68-1.52,5.51-2.83,8.27-4.21l-1.12-.64a11.12,11.12,0,0,1-3.95,9.89,10.89,10.89,0,0,1-4.63,2.22c-1.73.38-4.31.32-4.77-1.84-.19-.93-1.63-.54-1.43.4.47,2.24,2.78,3.22,4.88,3.12a12,12,0,0,0,6.13-2.18,12.55,12.55,0,0,0,5.26-11.61.76.76,0,0,0-1.12-.64c-2.9,1.45-5.88,2.8-8.67,4.44a15,15,0,0,0-5.9,5.6c-.45.84.84,1.59,1.29.75Z" transform="translate(-97.07 -106.75)"/><path class="cls-5" d="M778.61,667a14.9,14.9,0,0,0-9.39-2.19,14.75,14.75,0,0,0-4.52,1.2c-1.85.82-3.63,1.38-5.37,0-.6-.49-1.69.15-1.17.9,2.8,4.07,5.93,8.43,10.9,9.89,4.09,1.2,8.88-.37,10.47-4.55.34-.9-1.09-1.28-1.43-.4-1.47,3.85-6.22,4.56-9.64,3.17-4-1.66-6.63-5.39-9-8.86l-1.16.9a5.6,5.6,0,0,0,4.18,1.34c1.78-.19,3.34-1.33,5.08-1.76a13.52,13.52,0,0,1,10.32,1.69c.82.51,1.56-.78.75-1.28Z" transform="translate(-97.07 -106.75)"/><path class="cls-5" d="M636.13,702.53a26.08,26.08,0,0,1-7.42-16.92c-.05-1-1.54-1-1.49,0a27.68,27.68,0,0,0,7.86,18c.67.69,1.72-.37,1-1.05Z" transform="translate(-97.07 -106.75)"/><path class="cls-5" d="M849.51,655a22,22,0,0,0-2.17-20.73c-.54-.78-1.83,0-1.28.75a20.63,20.63,0,0,1,2,19.58c-.36.88,1.08,1.27,1.44.4Z" transform="translate(-97.07 -106.75)"/><path class="cls-5" d="M507.2,644.63c-4.08-6.12-4-13.85-2.47-20.79.2-.93-1.23-1.33-1.44-.39-1.61,7.31-1.67,15.48,2.62,21.93.53.8,1.82,0,1.29-.75Z" transform="translate(-97.07 -106.75)"/><path class="cls-5" d="M851.24,639a20.09,20.09,0,0,1,3.59-16.75h-1.29a17.1,17.1,0,0,1-2.67,21.54c-.7.67.35,1.72,1,1.06a18.64,18.64,0,0,0,2.91-23.36.76.76,0,0,0-1.29,0,21.59,21.59,0,0,0-3.74,17.91c.22.93,1.66.53,1.44-.4Z" transform="translate(-97.07 -106.75)"/><path class="cls-5" d="M567.76,684.61c2.75-6,.77-12.41-.86-18.37a.75.75,0,0,0-1.44.4c1.51,5.49,3.56,11.7,1,17.22-.4.86.88,1.62,1.28.75Z" transform="translate(-97.07 -106.75)"/><path class="cls-6" d="M697.06,614.85" transform="translate(-97.07 -106.75)"/></g>


<g id="flowers-03"><path class="cls-5" d="M703,700.39a15.27,15.27,0,0,1-8.43-7.49,15.59,15.59,0,0,1-.64-12.17c2.86-8.61,10.34-14.61,13.87-22.89.37-.87-.92-1.63-1.29-.75-3.06,7.18-9,12.58-12.45,19.51-3.08,6.15-3.69,13.2.43,19a16.72,16.72,0,0,0,8.11,6.19c.91.32,1.3-1.12.4-1.44Z" transform="translate(-97.07 -106.75)"/><path class="cls-5" d="M786.47,681.54c-3.25-4.28-6.85-9.06-7.49-14.57-.67-5.68,3-10.18,4.52-15.37.28-.92-1.16-1.31-1.44-.39-.84,2.79-2.29,5.33-3.37,8a16.15,16.15,0,0,0-1.15,8.15c.75,5.64,4.29,10.49,7.64,14.91.57.75,1.87,0,1.29-.75Z" transform="translate(-97.07 -106.75)"/><path class="cls-5" d="M695.11,691.64a14,14,0,0,1,5.76-5.3c2.68-1.52,5.51-2.83,8.27-4.21l-1.12-.64a11.12,11.12,0,0,1-3.95,9.89,10.89,10.89,0,0,1-4.63,2.22c-1.73.38-4.31.32-4.77-1.84-.19-.93-1.63-.54-1.43.4.47,2.24,2.78,3.22,4.88,3.12a12,12,0,0,0,6.13-2.18,12.55,12.55,0,0,0,5.26-11.61.76.76,0,0,0-1.12-.64c-2.9,1.45-5.88,2.8-8.67,4.44a15,15,0,0,0-5.9,5.6c-.45.84.84,1.59,1.29.75Z" transform="translate(-97.07 -106.75)"/><path class="cls-5" d="M778.61,667a14.9,14.9,0,0,0-9.39-2.19,14.75,14.75,0,0,0-4.52,1.2c-1.85.82-3.63,1.38-5.37,0-.6-.49-1.69.15-1.17.9,2.8,4.07,5.93,8.43,10.9,9.89,4.09,1.2,8.88-.37,10.47-4.55.34-.9-1.09-1.28-1.43-.4-1.47,3.85-6.22,4.56-9.64,3.17-4-1.66-6.63-5.39-9-8.86l-1.16.9a5.6,5.6,0,0,0,4.18,1.34c1.78-.19,3.34-1.33,5.08-1.76a13.52,13.52,0,0,1,10.32,1.69c.82.51,1.56-.78.75-1.28Z" transform="translate(-97.07 -106.75)"/><path class="cls-5" d="M636.13,702.53a26.08,26.08,0,0,1-7.42-16.92c-.05-1-1.54-1-1.49,0a27.68,27.68,0,0,0,7.86,18c.67.69,1.72-.37,1-1.05Z" transform="translate(-97.07 -106.75)"/><path class="cls-5" d="M628.17,688.59a65.54,65.54,0,0,0-14.85-10.12.76.76,0,0,0-1.1.44A13.34,13.34,0,0,0,613.36,690c2.06,3.52,6.14,6.5,10.39,5.81a6,6,0,0,0,4.75-4,.75.75,0,0,0-1.44-.4c-.69,2.33-3.25,3.32-5.5,3a9.86,9.86,0,0,1-5.76-3.46,11.9,11.9,0,0,1-2.14-11.58l-1.1.44a64.1,64.1,0,0,1,14.55,9.89c.71.64,1.77-.41,1.06-1Z" transform="translate(-97.07 -106.75)"/><path class="cls-5" d="M849.51,655a22,22,0,0,0,.13-16.43,24.27,24.27,0,0,0-4.44-7c-2-2.3-4.19-4.44-5.67-7.14-.45-.85-1.74-.1-1.28.75,2.65,4.87,7.46,8.1,9.72,13.24a20.63,20.63,0,0,1,.1,16.17c-.36.88,1.08,1.27,1.44.4Z" transform="translate(-97.07 -106.75)"/><path class="cls-5" d="M507.2,644.63c-4.08-6.12-4-13.85-2.47-20.79.2-.93-1.23-1.33-1.44-.39-1.61,7.31-1.67,15.48,2.62,21.93.53.8,1.82,0,1.29-.75Z" transform="translate(-97.07 -106.75)"/><path class="cls-5" d="M851.24,639a20.09,20.09,0,0,1,3.59-16.75h-1.29a17.1,17.1,0,0,1-2.67,21.54c-.7.67.35,1.72,1,1.06a18.64,18.64,0,0,0,2.91-23.36.76.76,0,0,0-1.29,0,21.59,21.59,0,0,0-3.74,17.91c.22.93,1.66.53,1.44-.4Z" transform="translate(-97.07 -106.75)"/><path class="cls-5" d="M567.76,684.61c2.75-6,.77-12.41-.86-18.37a.75.75,0,0,0-1.44.4c1.51,5.49,3.56,11.7,1,17.22-.4.86.88,1.62,1.28.75Z" transform="translate(-97.07 -106.75)"/><path class="cls-5" d="M570.14,674c-1.42-2,0-4.44,1.45-6,1.81-1.88,3.84-3.58,5.76-5.35l-1.25-.33c1.12,2.91,2.5,6.49.76,9.45-1.44,2.47-4.65,3-7.24,3.31-.94.11-1,1.6,0,1.48,3.09-.36,6.59-1,8.42-3.85,2.14-3.33.78-7.42-.5-10.78a.76.76,0,0,0-1.25-.33l-3.45,3.17a30.29,30.29,0,0,0-3.06,3c-1.54,1.92-2.46,4.72-.93,6.93.55.78,1.84,0,1.29-.75Z" transform="translate(-97.07 -106.75)"/><path class="cls-6" d="M697.06,614.85" transform="translate(-97.07 -106.75)"/></g>


<g id="flowers-04"><path class="cls-5" d="M703,700.39a15.34,15.34,0,0,1-9.37-9.78c-1.64-5.23.09-10.59,2.75-15.16s6.26-8.56,9-13.07a28,28,0,0,0,4.39-14.19,27,27,0,0,0-4.43-15.4c-.52-.8-1.81,0-1.28.75a25.72,25.72,0,0,1,4.21,15.05c-.19,5.48-2.3,10.34-5.34,14.83-5.54,8.18-14.42,17.31-10.61,28.09a16.9,16.9,0,0,0,10.23,10.32c.91.32,1.3-1.12.4-1.44Z" transform="translate(-97.07 -106.75)"/><path class="cls-5" d="M707.13,653.42c-2.18-2.26-4.64-4.61-8-4.77a27.26,27.26,0,0,0-5.47.66l-6.18,1a.75.75,0,0,0-.45,1.09,18.4,18.4,0,0,0,10.06,8c3.87,1.14,8.53,0,10.07-4.08.34-.9-1.1-1.29-1.43-.4-1.41,3.71-6,3.94-9.18,2.73a17.22,17.22,0,0,1-8.23-7l-.44,1.09,5.44-.87a40.43,40.43,0,0,1,5.12-.72c3.22-.1,5.52,2.17,7.6,4.34.66.69,1.72-.36,1-1.06Z" transform="translate(-97.07 -106.75)"/><path class="cls-5" d="M786.47,681.54c-2.61-3.44-5.28-7-6.69-11.17a15,15,0,0,1-.84-6.27,20.47,20.47,0,0,1,2.14-6.62c1.84-4,3.3-7.76,3.17-12.23-.12-4.76-1.51-9.38-2.79-13.93a.75.75,0,0,0-1.44.4c1.35,4.77,2.86,9.66,2.75,14.67-.1,4.77-2.36,8.55-4.08,12.84a16.38,16.38,0,0,0-.21,11.93c1.49,4.1,4.08,7.68,6.7,11.13.57.75,1.87,0,1.29-.75Z" transform="translate(-97.07 -106.75)"/><path class="cls-5" d="M695.11,691.64a14,14,0,0,1,5.76-5.3c2.68-1.52,5.51-2.83,8.27-4.21l-1.12-.64a11.12,11.12,0,0,1-3.95,9.89,10.89,10.89,0,0,1-4.63,2.22c-1.73.38-4.31.32-4.77-1.84-.19-.93-1.63-.54-1.43.4.47,2.24,2.78,3.22,4.88,3.12a12,12,0,0,0,6.13-2.18,12.55,12.55,0,0,0,5.26-11.61.76.76,0,0,0-1.12-.64c-2.9,1.45-5.88,2.8-8.67,4.44a15,15,0,0,0-5.9,5.6c-.45.84.84,1.59,1.29.75Z" transform="translate(-97.07 -106.75)"/><path class="cls-5" d="M785,646.35a4.22,4.22,0,0,1,1.55-3.9,8.59,8.59,0,0,1,4.87-1.77c3.31-.34,6.8,0,9.77-1.81l-1.12-.64a9.44,9.44,0,0,1-15,8c-.79-.54-1.54.75-.76,1.29a10.92,10.92,0,0,0,17.22-9.28.75.75,0,0,0-1.12-.64c-3.46,2.08-7.73,1-11.48,2-3.15.84-6.14,3.61-5.39,7.14.2.93,1.63.54,1.43-.4Z" transform="translate(-97.07 -106.75)"/><path class="cls-5" d="M778.61,667a14.9,14.9,0,0,0-9.39-2.19,14.75,14.75,0,0,0-4.52,1.2c-1.85.82-3.63,1.38-5.37,0-.6-.49-1.69.15-1.17.9,2.8,4.07,5.93,8.43,10.9,9.89,4.09,1.2,8.88-.37,10.47-4.55.34-.9-1.09-1.28-1.43-.4-1.47,3.85-6.22,4.56-9.64,3.17-4-1.66-6.63-5.39-9-8.86l-1.16.9a5.6,5.6,0,0,0,4.18,1.34c1.78-.19,3.34-1.33,5.08-1.76a13.52,13.52,0,0,1,10.32,1.69c.82.51,1.56-.78.75-1.28Z" transform="translate(-97.07 -106.75)"/><path class="cls-5" d="M636.13,702.53a26.27,26.27,0,0,1-7-13.3c-1.1-5.63,0-11.3,1.69-16.7.29-.91-1.15-1.3-1.44-.39-1.79,5.66-2.84,11.58-1.69,17.49a27.63,27.63,0,0,0,7.38,14c.67.69,1.72-.36,1-1.05Z" transform="translate(-97.07 -106.75)"/><path class="cls-5" d="M628.17,688.59a65.54,65.54,0,0,0-14.85-10.12.76.76,0,0,0-1.1.44A13.34,13.34,0,0,0,613.36,690c2.06,3.52,6.14,6.5,10.39,5.81a6,6,0,0,0,4.75-4,.75.75,0,0,0-1.44-.4c-.69,2.33-3.25,3.32-5.5,3a9.86,9.86,0,0,1-5.76-3.46,11.9,11.9,0,0,1-2.14-11.58l-1.1.44a64.1,64.1,0,0,1,14.55,9.89c.71.64,1.77-.41,1.06-1Z" transform="translate(-97.07 -106.75)"/><path class="cls-5" d="M849.51,655a22.13,22.13,0,0,0-3.65-22.65c-2.86-3.41-6.24-6.38-7.47-10.83s-.51-9.31.73-13.73a.74.74,0,0,0-1.43-.4,29.33,29.33,0,0,0-1.1,12.92c.76,4.27,3.21,7.51,6,10.66s5.47,6.59,6.5,11a20.62,20.62,0,0,1-1.07,12.65c-.36.88,1.08,1.27,1.44.4Z" transform="translate(-97.07 -106.75)"/><path class="cls-5" d="M507.2,644.63c-6.31-9.51-2.67-21.35.62-31.23.3-.91-1.14-1.3-1.44-.39-3.41,10.26-7,22.52-.47,32.37.53.8,1.82,0,1.29-.75Z" transform="translate(-97.07 -106.75)"/><path class="cls-5" d="M837.17,613.84A62.17,62.17,0,0,0,825,606.1a.76.76,0,0,0-1.1.45,11,11,0,0,0,12.17,13.31c.94-.11.95-1.6,0-1.49a9.85,9.85,0,0,1-8.34-2.92,9.75,9.75,0,0,1-2.39-8.51l-1.09.45a60.88,60.88,0,0,1,11.84,7.5c.74.6,1.8-.44,1-1Z" transform="translate(-97.07 -106.75)"/><path class="cls-5" d="M851.24,639a20.09,20.09,0,0,1,3.59-16.75h-1.29a17.1,17.1,0,0,1-2.67,21.54c-.7.67.35,1.72,1,1.06a18.64,18.64,0,0,0,2.91-23.36.76.76,0,0,0-1.29,0,21.59,21.59,0,0,0-3.74,17.91c.22.93,1.66.53,1.44-.4Z" transform="translate(-97.07 -106.75)"/><path class="cls-5" d="M506.31,618.6a15,15,0,0,0,8.82-6.45l-1.39-.38c.4,3.52.42,7.31-1.62,10.36-1.71,2.57-5.19,4.1-8.05,2.44a.74.74,0,0,0-.75,1.28c3.29,1.92,7.38.55,9.62-2.32,2.6-3.34,2.75-7.71,2.29-11.76a.75.75,0,0,0-1.39-.37,13.46,13.46,0,0,1-7.92,5.77.74.74,0,0,0,.39,1.43Z" transform="translate(-97.07 -106.75)"/><path class="cls-5" d="M567.76,684.61c3-6.47.42-13.3-1.23-19.74a25.12,25.12,0,0,1-.66-11.3c.7-3.61,2.06-7.05,3.08-10.58a.74.74,0,0,0-1.43-.39c-1,3.45-2.33,6.82-3,10.35a24.68,24.68,0,0,0,.09,10.09c1.4,6.71,5,14.05,1.91,20.82-.39.86.89,1.62,1.28.75Z" transform="translate(-97.07 -106.75)"/><path class="cls-5" d="M565.2,651.81a27.1,27.1,0,0,0-8.15-7.95.75.75,0,0,0-1.12.64,21.54,21.54,0,0,0,7.77,18.62c.74.6,1.8-.45,1.06-1a20.19,20.19,0,0,1-7.34-17.57l-1.12.64a25.43,25.43,0,0,1,7.61,7.43c.53.79,1.82,0,1.29-.76Z" transform="translate(-97.07 -106.75)"/><path class="cls-5" d="M570.14,674c-1.42-2,0-4.44,1.45-6,1.81-1.88,3.84-3.58,5.76-5.35l-1.25-.33c1.12,2.91,2.5,6.49.76,9.45-1.44,2.47-4.65,3-7.24,3.31-.94.11-1,1.6,0,1.48,3.09-.36,6.59-1,8.42-3.85,2.14-3.33.78-7.42-.5-10.78a.76.76,0,0,0-1.25-.33l-3.45,3.17a30.29,30.29,0,0,0-3.06,3c-1.54,1.92-2.46,4.72-.93,6.93.55.78,1.84,0,1.29-.75Z" transform="translate(-97.07 -106.75)"/><path class="cls-6" d="M697.06,614.85" transform="translate(-97.07 -106.75)"/></g>


<g id="flowers-05"><path class="cls-5" d="M703,700.39a15.37,15.37,0,0,1-9.84-11.68c-1.06-6.14,2.16-12,5.56-16.89s7.52-9.53,9.58-15.27a27,27,0,0,0,.58-16,26.21,26.21,0,0,0-4-8.48c-2-2.84-4.5-5.39-6-8.61-.39-.87-1.68-.12-1.28.75,1.34,2.95,3.5,5.33,5.43,7.89a25.44,25.44,0,0,1,3.2,25.6C701.61,668.15,689,677,691.86,689.8a16.91,16.91,0,0,0,10.73,12c.91.32,1.3-1.12.4-1.44Z" transform="translate(-97.07 -106.75)"/><path class="cls-5" d="M703.46,628.62c-1.85-3.39.13-7.11,2.07-9.94s4.15-5.69,4.57-9.3l-1.27.53a11.39,11.39,0,0,1,2.63,11.23c-1.35,4.23-4.9,6.45-8.62,8.42-.84.45-.09,1.74.75,1.29a25.64,25.64,0,0,0,6-4,12.75,12.75,0,0,0,.28-18,.75.75,0,0,0-1.27.52c-.8,6.92-10.57,12.42-6.44,20,.46.84,1.74.09,1.29-.75Z" transform="translate(-97.07 -106.75)"/><path class="cls-5" d="M707.13,653.42c-2.18-2.26-4.64-4.61-8-4.77a27.26,27.26,0,0,0-5.47.66l-6.18,1a.75.75,0,0,0-.45,1.09,18.4,18.4,0,0,0,10.06,8c3.87,1.14,8.53,0,10.07-4.08.34-.9-1.1-1.29-1.43-.4-1.41,3.71-6,3.94-9.18,2.73a17.22,17.22,0,0,1-8.23-7l-.44,1.09,5.44-.87a40.43,40.43,0,0,1,5.12-.72c3.22-.1,5.52,2.17,7.6,4.34.66.69,1.72-.36,1-1.06Z" transform="translate(-97.07 -106.75)"/><path class="cls-5" d="M786.47,681.54c-2.61-3.44-5.28-7-6.69-11.17a15,15,0,0,1-.84-6.27,19.4,19.4,0,0,1,2-6.24c1.72-3.75,3.28-7.31,3.36-11.51a42.54,42.54,0,0,0-1.94-11.94c-1.28-4.69-2.82-9.36-3.17-14.23-.07-.95-1.56-1-1.49,0,.62,8.59,4.91,16.52,5.11,25.15a19.46,19.46,0,0,1-.89,6.48c-.71,2.17-1.79,4.19-2.7,6.27a16.89,16.89,0,0,0-1.2,11.5c1.28,4.75,4.27,8.85,7.2,12.71.57.75,1.87,0,1.29-.75Z" transform="translate(-97.07 -106.75)"/><path class="cls-5" d="M695.11,691.64a14,14,0,0,1,5.76-5.3c2.68-1.52,5.51-2.83,8.27-4.21l-1.12-.64a11.12,11.12,0,0,1-3.95,9.89,10.89,10.89,0,0,1-4.63,2.22c-1.73.38-4.31.32-4.77-1.84-.19-.93-1.63-.54-1.43.4.47,2.24,2.78,3.22,4.88,3.12a12,12,0,0,0,6.13-2.18,12.55,12.55,0,0,0,5.26-11.61.76.76,0,0,0-1.12-.64c-2.9,1.45-5.88,2.8-8.67,4.44a15,15,0,0,0-5.9,5.6c-.45.84.84,1.59,1.29.75Z" transform="translate(-97.07 -106.75)"/><path class="cls-5" d="M779,618.45c-3.92-4.63-9.69-6.94-15.2-9.09a.75.75,0,0,0-.94.72,14.81,14.81,0,0,0,15.44,15.43c1,0,1-1.52,0-1.48a13.36,13.36,0,0,1-13.95-13.95l-1,.72c5.28,2.06,10.8,4.27,14.55,8.7.62.74,1.66-.32,1-1Z" transform="translate(-97.07 -106.75)"/><path class="cls-5" d="M785,646.35a4.22,4.22,0,0,1,1.55-3.9,8.59,8.59,0,0,1,4.87-1.77c3.31-.34,6.8,0,9.77-1.81l-1.12-.64a9.44,9.44,0,0,1-15,8c-.79-.54-1.54.75-.76,1.29a10.92,10.92,0,0,0,17.22-9.28.75.75,0,0,0-1.12-.64c-3.46,2.08-7.73,1-11.48,2-3.15.84-6.14,3.61-5.39,7.14.2.93,1.63.54,1.43-.4Z" transform="translate(-97.07 -106.75)"/><path class="cls-5" d="M778.61,667a14.9,14.9,0,0,0-9.39-2.19,14.75,14.75,0,0,0-4.52,1.2c-1.85.82-3.63,1.38-5.37,0-.6-.49-1.69.15-1.17.9,2.8,4.07,5.93,8.43,10.9,9.89,4.09,1.2,8.88-.37,10.47-4.55.34-.9-1.09-1.28-1.43-.4-1.47,3.85-6.22,4.56-9.64,3.17-4-1.66-6.63-5.39-9-8.86l-1.16.9a5.6,5.6,0,0,0,4.18,1.34c1.78-.19,3.34-1.33,5.08-1.76a13.52,13.52,0,0,1,10.32,1.69c.82.51,1.56-.78.75-1.28Z" transform="translate(-97.07 -106.75)"/><path class="cls-5" d="M636.13,702.53A26.26,26.26,0,0,1,628.78,682c.66-8.08,4.38-15.52,7.06-23.06.32-.9-1.12-1.29-1.44-.39-2.82,7.94-6.73,15.78-7.17,24.34a27.69,27.69,0,0,0,7.85,20.67c.67.69,1.72-.36,1-1.05Z" transform="translate(-97.07 -106.75)"/><path class="cls-5" d="M632.34,669a11.21,11.21,0,0,0,8.12-4.38c2.31-2.83,3.52-6.35,4.68-9.77.11-.33-.23-.56-.52-.52A15.6,15.6,0,0,0,632.11,666c-.12.53.69.76.81.23a14.78,14.78,0,0,1,11.92-11.07l-.51-.51c-1.92,5.64-4.89,13.31-12,13.53-.54,0-.54.86,0,.84Z" transform="translate(-97.07 -106.75)"/><path class="cls-5" d="M628.17,688.59a65.54,65.54,0,0,0-14.85-10.12.76.76,0,0,0-1.1.44A13.34,13.34,0,0,0,613.36,690c2.06,3.52,6.14,6.5,10.39,5.81a6,6,0,0,0,4.75-4,.75.75,0,0,0-1.44-.4c-.69,2.33-3.25,3.32-5.5,3a9.86,9.86,0,0,1-5.76-3.46,11.9,11.9,0,0,1-2.14-11.58l-1.1.44a64.1,64.1,0,0,1,14.55,9.89c.71.64,1.77-.41,1.06-1Z" transform="translate(-97.07 -106.75)"/><path class="cls-5" d="M849.51,655a22,22,0,0,0,1.15-13.06c-1-4.49-3.38-8.07-6.42-11.42a32.8,32.8,0,0,1-4.51-5.73,16.14,16.14,0,0,1-2-7.16c-.25-5.19,1.34-10.18,3-15,1.92-5.55,3.77-11,3.71-17a.74.74,0,0,0-1.48,0c.09,10.48-6.32,19.51-6.74,29.89A18.64,18.64,0,0,0,840.13,628c2.9,3.73,6.51,6.75,8.21,11.29a20.71,20.71,0,0,1-.27,15.27c-.36.88,1.08,1.27,1.44.4Z" transform="translate(-97.07 -106.75)"/><path class="cls-5" d="M507.2,644.63c-4.44-6.69-3.95-15.16-2-22.62,2.19-8.49,5.8-16.48,6.76-25.28.11-1-1.38-.94-1.48,0-1,9.28-5.14,17.68-7.16,26.72-1.63,7.3-1.66,15.48,2.62,21.93.53.8,1.82,0,1.29-.75Z" transform="translate(-97.07 -106.75)"/><path class="cls-5" d="M837.17,613.84A62.17,62.17,0,0,0,825,606.1a.76.76,0,0,0-1.1.45,11,11,0,0,0,12.17,13.31c.94-.11.95-1.6,0-1.49a9.85,9.85,0,0,1-8.34-2.92,9.75,9.75,0,0,1-2.39-8.51l-1.09.45a60.88,60.88,0,0,1,11.84,7.5c.74.6,1.8-.44,1-1Z" transform="translate(-97.07 -106.75)"/><path class="cls-5" d="M851.24,639a20.09,20.09,0,0,1,3.59-16.75h-1.29a17.1,17.1,0,0,1-2.67,21.54c-.7.67.35,1.72,1,1.06a18.64,18.64,0,0,0,2.91-23.36.76.76,0,0,0-1.29,0,21.59,21.59,0,0,0-3.74,17.91c.22.93,1.66.53,1.44-.4Z" transform="translate(-97.07 -106.75)"/><path class="cls-5" d="M506.31,618.6a15,15,0,0,0,8.82-6.45l-1.39-.38c.4,3.52.42,7.31-1.62,10.36-1.71,2.57-5.19,4.1-8.05,2.44a.74.74,0,0,0-.75,1.28c3.29,1.92,7.38.55,9.62-2.32,2.6-3.34,2.75-7.71,2.29-11.76a.75.75,0,0,0-1.39-.37,13.46,13.46,0,0,1-7.92,5.77.74.74,0,0,0,.39,1.43Z" transform="translate(-97.07 -106.75)"/><path class="cls-5" d="M567.76,684.61c3.3-7.26-.25-14.75-1.75-22a25.11,25.11,0,0,1,.68-12.41c1.09-3.75,2.57-7.41,3.17-11.28s.4-7.79-1.6-11.21a.74.74,0,0,0-1.28.75c5,8.6-2,18.39-2.92,27.12-.49,4.83,1,9.46,2.24,14.07s2.23,9.66.18,14.17c-.39.86.89,1.62,1.28.75Z" transform="translate(-97.07 -106.75)"/><path class="cls-5" d="M565.2,651.81a27.1,27.1,0,0,0-8.15-7.95.75.75,0,0,0-1.12.64,21.54,21.54,0,0,0,7.77,18.62c.74.6,1.8-.45,1.06-1a20.19,20.19,0,0,1-7.34-17.57l-1.12.64a25.43,25.43,0,0,1,7.61,7.43c.53.79,1.82,0,1.29-.76Z" transform="translate(-97.07 -106.75)"/><path class="cls-5" d="M570.14,674c-1.42-2,0-4.44,1.45-6,1.81-1.88,3.84-3.58,5.76-5.35l-1.25-.33c1.12,2.91,2.5,6.49.76,9.45-1.44,2.47-4.65,3-7.24,3.31-.94.11-1,1.6,0,1.48,3.09-.36,6.59-1,8.42-3.85,2.14-3.33.78-7.42-.5-10.78a.76.76,0,0,0-1.25-.33l-3.45,3.17a30.29,30.29,0,0,0-3.06,3c-1.54,1.92-2.46,4.72-.93,6.93.55.78,1.84,0,1.29-.75Z" transform="translate(-97.07 -106.75)"/><path class="cls-6" d="M697.06,614.85" transform="translate(-97.07 -106.75)"/></g>


<g id="flowers-06"><path class="cls-5" d="M703,700.39a15.25,15.25,0,0,1-10-15.1c.49-7.66,6-13.76,10.29-19.71,4.09-5.75,6.84-12,6.5-19.17a27.43,27.43,0,0,0-2.14-9.44c-1.43-3.34-3.66-6-5.85-8.9a17.57,17.57,0,0,1-4.09-11.61c.13-4.47,1.57-8.79,3-13,.31-.91-1.12-1.3-1.43-.4-2.41,7.06-4.88,15.21-1.09,22.24,1.8,3.34,4.61,6,6.57,9.23a25.31,25.31,0,0,1,3.43,10.27,25.58,25.58,0,0,1-1.12,10.78,37.88,37.88,0,0,1-5.69,10.1c-4.32,5.94-9.48,12.11-9.87,19.8a16.78,16.78,0,0,0,11.1,16.33c.91.32,1.3-1.12.4-1.44Z" transform="translate(-97.07 -106.75)"/><path class="cls-5" d="M703.46,628.62c-1.85-3.39.13-7.11,2.07-9.94s4.15-5.69,4.57-9.3l-1.27.53a11.39,11.39,0,0,1,2.63,11.23c-1.35,4.23-4.9,6.45-8.62,8.42-.84.45-.09,1.74.75,1.29a25.64,25.64,0,0,0,6-4,12.75,12.75,0,0,0,.28-18,.75.75,0,0,0-1.27.52c-.8,6.92-10.57,12.42-6.44,20,.46.84,1.74.09,1.29-.75Z" transform="translate(-97.07 -106.75)"/><path class="cls-5" d="M707.13,653.42c-2.18-2.26-4.64-4.61-8-4.77a27.26,27.26,0,0,0-5.47.66l-6.18,1a.75.75,0,0,0-.45,1.09,18.4,18.4,0,0,0,10.06,8c3.87,1.14,8.53,0,10.07-4.08.34-.9-1.1-1.29-1.43-.4-1.41,3.71-6,3.94-9.18,2.73a17.22,17.22,0,0,1-8.23-7l-.44,1.09,5.44-.87a40.43,40.43,0,0,1,5.12-.72c3.22-.1,5.52,2.17,7.6,4.34.66.69,1.72-.36,1-1.06Z" transform="translate(-97.07 -106.75)"/><path class="cls-5" d="M786.47,681.54c-3.08-4.06-6.35-8.45-7.33-13.55-1.06-5.51,2-9.86,3.82-14.78,3.25-8.58-.47-17.46-2.56-25.83-1.23-4.88-2-10-.33-14.84.3-.92-1.13-1.31-1.44-.4-3,8.85,1.28,17.87,3.21,26.45,1,4.58,1.45,9.33-.17,13.82-1.75,4.88-4.79,9.13-4.18,14.56.65,5.82,4.26,10.79,7.69,15.32.57.75,1.87,0,1.29-.75Z" transform="translate(-97.07 -106.75)"/><path class="cls-5" d="M695.11,691.64a14,14,0,0,1,5.76-5.3c2.68-1.52,5.51-2.83,8.27-4.21l-1.12-.64a11.12,11.12,0,0,1-3.95,9.89,10.89,10.89,0,0,1-4.63,2.22c-1.73.38-4.31.32-4.77-1.84-.19-.93-1.63-.54-1.43.4.47,2.24,2.78,3.22,4.88,3.12a12,12,0,0,0,6.13-2.18,12.55,12.55,0,0,0,5.26-11.61.76.76,0,0,0-1.12-.64c-2.9,1.45-5.88,2.8-8.67,4.44a15,15,0,0,0-5.9,5.6c-.45.84.84,1.59,1.29.75Z" transform="translate(-97.07 -106.75)"/><path class="cls-5" d="M779,618.45c-3.92-4.63-9.69-6.94-15.2-9.09a.75.75,0,0,0-.94.72,14.81,14.81,0,0,0,15.44,15.43c1,0,1-1.52,0-1.48a13.36,13.36,0,0,1-13.95-13.95l-1,.72c5.28,2.06,10.8,4.27,14.55,8.7.62.74,1.66-.32,1-1Z" transform="translate(-97.07 -106.75)"/><path class="cls-5" d="M785,646.35a4.22,4.22,0,0,1,1.55-3.9,8.59,8.59,0,0,1,4.87-1.77c3.31-.34,6.8,0,9.77-1.81l-1.12-.64a9.44,9.44,0,0,1-15,8c-.79-.54-1.54.75-.76,1.29a10.92,10.92,0,0,0,17.22-9.28.75.75,0,0,0-1.12-.64c-3.46,2.08-7.73,1-11.48,2-3.15.84-6.14,3.61-5.39,7.14.2.93,1.63.54,1.43-.4Z" transform="translate(-97.07 -106.75)"/><path class="cls-5" d="M778.61,667a14.9,14.9,0,0,0-9.39-2.19,14.75,14.75,0,0,0-4.52,1.2c-1.85.82-3.63,1.38-5.37,0-.6-.49-1.69.15-1.17.9,2.8,4.07,5.93,8.43,10.9,9.89,4.09,1.2,8.88-.37,10.47-4.55.34-.9-1.09-1.28-1.43-.4-1.47,3.85-6.22,4.56-9.64,3.17-4-1.66-6.63-5.39-9-8.86l-1.16.9a5.6,5.6,0,0,0,4.18,1.34c1.78-.19,3.34-1.33,5.08-1.76a13.52,13.52,0,0,1,10.32,1.69c.82.51,1.56-.78.75-1.28Z" transform="translate(-97.07 -106.75)"/><path class="cls-5" d="M636.13,702.53a26.21,26.21,0,0,1-7.38-20.06c.53-8,4.18-15.42,6.86-22.87a49.78,49.78,0,0,0,3-13.12c.08-1-1.41-1-1.49,0-1.22,16-14.17,30.42-8.4,46.87a27.89,27.89,0,0,0,6.37,10.23c.67.69,1.72-.36,1-1.05Z" transform="translate(-97.07 -106.75)"/><path class="cls-5" d="M632.34,669a11.21,11.21,0,0,0,8.12-4.38c2.31-2.83,3.52-6.35,4.68-9.77.11-.33-.23-.56-.52-.52A15.6,15.6,0,0,0,632.11,666c-.12.53.69.76.81.23a14.78,14.78,0,0,1,11.92-11.07l-.51-.51c-1.92,5.64-4.89,13.31-12,13.53-.54,0-.54.86,0,.84Z" transform="translate(-97.07 -106.75)"/><path class="cls-5" d="M628.17,688.59a65.54,65.54,0,0,0-14.85-10.12.76.76,0,0,0-1.1.44A13.34,13.34,0,0,0,613.36,690c2.06,3.52,6.14,6.5,10.39,5.81a6,6,0,0,0,4.75-4,.75.75,0,0,0-1.44-.4c-.69,2.33-3.25,3.32-5.5,3a9.86,9.86,0,0,1-5.76-3.46,11.9,11.9,0,0,1-2.14-11.58l-1.1.44a64.1,64.1,0,0,1,14.55,9.89c.71.64,1.77-.41,1.06-1Z" transform="translate(-97.07 -106.75)"/><path class="cls-5" d="M849.51,655a22,22,0,0,0,1.15-13.06c-1-4.49-3.38-8.07-6.42-11.42a32.8,32.8,0,0,1-4.51-5.73,16.14,16.14,0,0,1-2-7.16c-.25-5.19,1.34-10.18,3-15,1.92-5.55,3.77-11,3.71-17a.74.74,0,0,0-1.48,0c.09,10.48-6.32,19.51-6.74,29.89A18.64,18.64,0,0,0,840.13,628c2.9,3.73,6.51,6.75,8.21,11.29a20.71,20.71,0,0,1-.27,15.27c-.36.88,1.08,1.27,1.44.4Z" transform="translate(-97.07 -106.75)"/><path class="cls-5" d="M507.2,644.63c-4.25-6.4-4-14.51-2.26-21.71,2-8.27,5.65-16,6.79-24.53a54.08,54.08,0,0,0,0-14.49c-.12-.94-1.61-.95-1.49,0a54.14,54.14,0,0,1,.16,13.34,66.65,66.65,0,0,1-3.07,12.91c-2.5,7.72-5.49,15.52-5,23.78a23,23,0,0,0,3.59,11.45c.53.8,1.82,0,1.29-.75Z" transform="translate(-97.07 -106.75)"/><path class="cls-5" d="M844.84,592.29a22.46,22.46,0,0,0,6.82-13.78,21.06,21.06,0,0,0,.07-3.89,4.91,4.91,0,0,0-1-3,2.06,2.06,0,0,0-2.66-.29,5.87,5.87,0,0,0-1.8,2.86,46.61,46.61,0,0,0-2.95,10.55c-.15.93,1.28,1.34,1.43.39a46.83,46.83,0,0,1,2.47-9.33c.25-.67,1.3-4.16,2.45-3.13.83.73.62,2.88.6,3.86a20.94,20.94,0,0,1-6.51,14.75c-.7.66.36,1.71,1.05,1Z" transform="translate(-97.07 -106.75)"/><path class="cls-5" d="M837.17,613.84A62.17,62.17,0,0,0,825,606.1a.76.76,0,0,0-1.1.45,11,11,0,0,0,12.17,13.31c.94-.11.95-1.6,0-1.49a9.85,9.85,0,0,1-8.34-2.92,9.75,9.75,0,0,1-2.39-8.51l-1.09.45a60.88,60.88,0,0,1,11.84,7.5c.74.6,1.8-.44,1-1Z" transform="translate(-97.07 -106.75)"/><path class="cls-5" d="M851.24,639a20.09,20.09,0,0,1,3.59-16.75h-1.29a17.1,17.1,0,0,1-2.67,21.54c-.7.67.35,1.72,1,1.06a18.64,18.64,0,0,0,2.91-23.36.76.76,0,0,0-1.29,0,21.59,21.59,0,0,0-3.74,17.91c.22.93,1.66.53,1.44-.4Z" transform="translate(-97.07 -106.75)"/><path class="cls-5" d="M506.31,618.6a15,15,0,0,0,8.82-6.45l-1.39-.38c.4,3.52.42,7.31-1.62,10.36-1.71,2.57-5.19,4.1-8.05,2.44a.74.74,0,0,0-.75,1.28c3.29,1.92,7.38.55,9.62-2.32,2.6-3.34,2.75-7.71,2.29-11.76a.75.75,0,0,0-1.39-.37,13.46,13.46,0,0,1-7.92,5.77.74.74,0,0,0,.39,1.43Z" transform="translate(-97.07 -106.75)"/><path class="cls-5" d="M511.4,590.78a13.21,13.21,0,0,1-12.29-14.51l-1.12.64a21.51,21.51,0,0,1,12.2,13.94.74.74,0,0,0,1.43-.4,22.87,22.87,0,0,0-12.88-14.82.76.76,0,0,0-1.12.64,14.68,14.68,0,0,0,13.78,16c1,.07,1-1.42,0-1.49Z" transform="translate(-97.07 -106.75)"/><path class="cls-5" d="M567.76,684.61c3.3-7.26-.25-14.75-1.75-22a25.11,25.11,0,0,1,.68-12.41c1.09-3.75,2.57-7.41,3.17-11.28s.4-7.79-1.6-11.21a.74.74,0,0,0-1.28.75c5,8.6-2,18.39-2.92,27.12-.49,4.83,1,9.46,2.24,14.07s2.23,9.66.18,14.17c-.39.86.89,1.62,1.28.75Z" transform="translate(-97.07 -106.75)"/><path class="cls-5" d="M565.2,651.81a27.1,27.1,0,0,0-8.15-7.95.75.75,0,0,0-1.12.64,21.54,21.54,0,0,0,7.77,18.62c.74.6,1.8-.45,1.06-1a20.19,20.19,0,0,1-7.34-17.57l-1.12.64a25.43,25.43,0,0,1,7.61,7.43c.53.79,1.82,0,1.29-.76Z" transform="translate(-97.07 -106.75)"/><path class="cls-5" d="M568.2,627.38l-8.78-3.94c-.44-.2-1.2,0-1.12.64.4,3.07,1.1,6.33,3.28,8.67,1.88,2,5,3.21,7.64,2.15a.78.78,0,0,0,.52-.92.77.77,0,0,0-.92-.52,5.75,5.75,0,0,1-6.28-1.88c-1.81-2-2.41-4.89-2.75-7.5l-1.12.64,8.78,3.95a.78.78,0,0,0,1-.27.75.75,0,0,0-.27-1Z" transform="translate(-97.07 -106.75)"/><path class="cls-5" d="M570.14,674c-1.42-2,0-4.44,1.45-6,1.81-1.88,3.84-3.58,5.76-5.35l-1.25-.33c1.12,2.91,2.5,6.49.76,9.45-1.44,2.47-4.65,3-7.24,3.31-.94.11-1,1.6,0,1.48,3.09-.36,6.59-1,8.42-3.85,2.14-3.33.78-7.42-.5-10.78a.76.76,0,0,0-1.25-.33l-3.45,3.17a30.29,30.29,0,0,0-3.06,3c-1.54,1.92-2.46,4.72-.93,6.93.55.78,1.84,0,1.29-.75Z" transform="translate(-97.07 -106.75)"/></g>


<g id="flowers-07"><path class="cls-5" d="M703,700.39a15.25,15.25,0,0,1-10-15.1c.49-7.66,6-13.76,10.29-19.71,4.09-5.75,6.84-12,6.5-19.17a27.43,27.43,0,0,0-2.14-9.44c-1.43-3.34-3.66-6-5.85-8.9a17.57,17.57,0,0,1-4.09-11.61c.13-4.47,1.57-8.79,3-13,.31-.91-1.12-1.3-1.43-.4-2.41,7.06-4.88,15.21-1.09,22.24,1.8,3.34,4.61,6,6.57,9.23a25.31,25.31,0,0,1,3.43,10.27,25.58,25.58,0,0,1-1.12,10.78,37.88,37.88,0,0,1-5.69,10.1c-4.32,5.94-9.48,12.11-9.87,19.8a16.78,16.78,0,0,0,11.1,16.33c.91.32,1.3-1.12.4-1.44Z" transform="translate(-97.07 -106.75)"/><path class="cls-5" d="M703.46,628.62c-1.85-3.39.13-7.11,2.07-9.94s4.15-5.69,4.57-9.3l-1.27.53a11.39,11.39,0,0,1,2.63,11.23c-1.35,4.23-4.9,6.45-8.62,8.42-.84.45-.09,1.74.75,1.29a25.64,25.64,0,0,0,6-4,12.75,12.75,0,0,0,.28-18,.75.75,0,0,0-1.27.52c-.8,6.92-10.57,12.42-6.44,20,.46.84,1.74.09,1.29-.75Z" transform="translate(-97.07 -106.75)"/><path class="cls-5" d="M707.13,653.42c-2.18-2.26-4.64-4.61-8-4.77a27.26,27.26,0,0,0-5.47.66l-6.18,1a.75.75,0,0,0-.45,1.09,18.4,18.4,0,0,0,10.06,8c3.87,1.14,8.53,0,10.07-4.08.34-.9-1.1-1.29-1.43-.4-1.41,3.71-6,3.94-9.18,2.73a17.22,17.22,0,0,1-8.23-7l-.44,1.09,5.44-.87a40.43,40.43,0,0,1,5.12-.72c3.22-.1,5.52,2.17,7.6,4.34.66.69,1.72-.36,1-1.06Z" transform="translate(-97.07 -106.75)"/><path class="cls-5" d="M786.47,681.54c-3.08-4.06-6.35-8.45-7.33-13.55-1.06-5.51,2-9.86,3.82-14.78,3.25-8.58-.47-17.46-2.56-25.83-1.23-4.88-2-10-.33-14.84.3-.92-1.13-1.31-1.44-.4-3,8.85,1.28,17.87,3.21,26.45,1,4.58,1.45,9.33-.17,13.82-1.75,4.88-4.79,9.13-4.18,14.56.65,5.82,4.26,10.79,7.69,15.32.57.75,1.87,0,1.29-.75Z" transform="translate(-97.07 -106.75)"/><path class="cls-5" d="M697.42,612.27a24.16,24.16,0,0,1,2.3-25.39h-1.28a21.33,21.33,0,0,1-2.79,22.18c-.61.74.44,1.8,1.05,1.06a22.88,22.88,0,0,0,3-24c-.26-.57-1-.4-1.28,0A25.59,25.59,0,0,0,696.13,613c.44.85,1.72.1,1.29-.75Z" transform="translate(-97.07 -106.75)"/><path class="cls-5" d="M695.11,691.64a14,14,0,0,1,5.76-5.3c2.68-1.52,5.51-2.83,8.27-4.21l-1.12-.64a11.12,11.12,0,0,1-3.95,9.89,10.89,10.89,0,0,1-4.63,2.22c-1.73.38-4.31.32-4.77-1.84-.19-.93-1.63-.54-1.43.4.47,2.24,2.78,3.22,4.88,3.12a12,12,0,0,0,6.13-2.18,12.55,12.55,0,0,0,5.26-11.61.76.76,0,0,0-1.12-.64c-2.9,1.45-5.88,2.8-8.67,4.44a15,15,0,0,0-5.9,5.6c-.45.84.84,1.59,1.29.75Z" transform="translate(-97.07 -106.75)"/><path class="cls-5" d="M779,618.45c-3.92-4.63-9.69-6.94-15.2-9.09a.75.75,0,0,0-.94.72,14.81,14.81,0,0,0,15.44,15.43c1,0,1-1.52,0-1.48a13.36,13.36,0,0,1-13.95-13.95l-1,.72c5.28,2.06,10.8,4.27,14.55,8.7.62.74,1.66-.32,1-1Z" transform="translate(-97.07 -106.75)"/><path class="cls-5" d="M785,646.35a4.22,4.22,0,0,1,1.55-3.9,8.59,8.59,0,0,1,4.87-1.77c3.31-.34,6.8,0,9.77-1.81l-1.12-.64a9.44,9.44,0,0,1-15,8c-.79-.54-1.54.75-.76,1.29a10.92,10.92,0,0,0,17.22-9.28.75.75,0,0,0-1.12-.64c-3.46,2.08-7.73,1-11.48,2-3.15.84-6.14,3.61-5.39,7.14.2.93,1.63.54,1.43-.4Z" transform="translate(-97.07 -106.75)"/><path class="cls-5" d="M778.61,667a14.9,14.9,0,0,0-9.39-2.19,14.75,14.75,0,0,0-4.52,1.2c-1.85.82-3.63,1.38-5.37,0-.6-.49-1.69.15-1.17.9,2.8,4.07,5.93,8.43,10.9,9.89,4.09,1.2,8.88-.37,10.47-4.55.34-.9-1.09-1.28-1.43-.4-1.47,3.85-6.22,4.56-9.64,3.17-4-1.66-6.63-5.39-9-8.86l-1.16.9a5.6,5.6,0,0,0,4.18,1.34c1.78-.19,3.34-1.33,5.08-1.76a13.52,13.52,0,0,1,10.32,1.69c.82.51,1.56-.78.75-1.28Z" transform="translate(-97.07 -106.75)"/><path class="cls-5" d="M780.2,612.09c1.11-3,4.49-4.31,7.08-5.77s5.17-3.54,5.56-6.71l-1.39.37a9.39,9.39,0,0,1-11.65,12.81c-.91-.31-1.3,1.13-.4,1.43a10.87,10.87,0,0,0,13.33-15c-.34-.75-1.3-.26-1.38.38-.38,3.07-3.63,4.8-6.07,6.09-2.66,1.41-5.42,3-6.52,6-.33.9,1.11,1.29,1.44.4Z" transform="translate(-97.07 -106.75)"/><path class="cls-5" d="M636.13,702.53a26.3,26.3,0,0,1-6.91-12.9c-1.1-5.18-.35-10.47,1.12-15.5,2.79-9.52,7.86-18.38,8.31-28.48a22.39,22.39,0,0,0-3.71-14.11c-.56-.78-1.85,0-1.29.75,5.74,8.06,3.51,18.72.37,27.34-3.5,9.62-8.37,19.48-6.32,30a27.63,27.63,0,0,0,7.38,14c.67.69,1.72-.36,1-1.05Z" transform="translate(-97.07 -106.75)"/><path class="cls-5" d="M632.34,669a11.21,11.21,0,0,0,8.12-4.38c2.31-2.83,3.52-6.35,4.68-9.77.11-.33-.23-.56-.52-.52A15.6,15.6,0,0,0,632.11,666c-.12.53.69.76.81.23a14.78,14.78,0,0,1,11.92-11.07l-.51-.51c-1.92,5.64-4.89,13.31-12,13.53-.54,0-.54.86,0,.84Z" transform="translate(-97.07 -106.75)"/><path class="cls-5" d="M628.17,688.59a65.54,65.54,0,0,0-14.85-10.12.76.76,0,0,0-1.1.44A13.34,13.34,0,0,0,613.36,690c2.06,3.52,6.14,6.5,10.39,5.81a6,6,0,0,0,4.75-4,.75.75,0,0,0-1.44-.4c-.69,2.33-3.25,3.32-5.5,3a9.86,9.86,0,0,1-5.76-3.46,11.9,11.9,0,0,1-2.14-11.58l-1.1.44a64.1,64.1,0,0,1,14.55,9.89c.71.64,1.77-.41,1.06-1Z" transform="translate(-97.07 -106.75)"/><path class="cls-5" d="M849.51,655a22,22,0,0,0,.13-16.43,24.27,24.27,0,0,0-4.44-7c-2-2.29-4.24-4.43-5.67-7.14-3.07-5.85-1.66-12.86.26-18.82s4.49-12,4.71-18.45a32.13,32.13,0,0,0-5.49-19c-.54-.79-1.83,0-1.29.75A30.7,30.7,0,0,1,843,586.1c0,6.46-2.47,12.4-4.47,18.44-1.82,5.52-3.19,11.59-1.6,17.34s6.7,9.13,9.74,14.08a20.62,20.62,0,0,1,1.37,18.6c-.36.88,1.08,1.27,1.44.4Z" transform="translate(-97.07 -106.75)"/><path class="cls-5" d="M507.2,644.63c-6.2-9.34-2.78-21,.45-30.72a84.43,84.43,0,0,0,4.17-16.15,54.52,54.52,0,0,0-6.11-32.39c-.45-.84-1.74-.09-1.29.75a53.21,53.21,0,0,1,6,31.22c-1.3,11.11-7.21,21.14-8,32.33-.4,5.46.48,11.09,3.55,15.71.53.8,1.82,0,1.29-.75Z" transform="translate(-97.07 -106.75)"/><path class="cls-5" d="M844.84,592.29a22.46,22.46,0,0,0,6.82-13.78,21.06,21.06,0,0,0,.07-3.89,4.91,4.91,0,0,0-1-3,2.06,2.06,0,0,0-2.66-.29,5.87,5.87,0,0,0-1.8,2.86,46.61,46.61,0,0,0-2.95,10.55c-.15.93,1.28,1.34,1.43.39a46.83,46.83,0,0,1,2.47-9.33c.25-.67,1.3-4.16,2.45-3.13.83.73.62,2.88.6,3.86a20.94,20.94,0,0,1-6.51,14.75c-.7.66.36,1.71,1.05,1Z" transform="translate(-97.07 -106.75)"/><path class="cls-5" d="M837.17,613.84A62.17,62.17,0,0,0,825,606.1a.76.76,0,0,0-1.1.45,11,11,0,0,0,12.17,13.31c.94-.11.95-1.6,0-1.49a9.85,9.85,0,0,1-8.34-2.92,9.75,9.75,0,0,1-2.39-8.51l-1.09.45a60.88,60.88,0,0,1,11.84,7.5c.74.6,1.8-.44,1-1Z" transform="translate(-97.07 -106.75)"/><path class="cls-5" d="M851.24,639a20.09,20.09,0,0,1,3.59-16.75h-1.29a17.1,17.1,0,0,1-2.67,21.54c-.7.67.35,1.72,1,1.06a18.64,18.64,0,0,0,2.91-23.36.76.76,0,0,0-1.29,0,21.59,21.59,0,0,0-3.74,17.91c.22.93,1.66.53,1.44-.4Z" transform="translate(-97.07 -106.75)"/><path class="cls-5" d="M506.31,618.6a15,15,0,0,0,8.82-6.45l-1.39-.38c.4,3.52.42,7.31-1.62,10.36-1.71,2.57-5.19,4.1-8.05,2.44a.74.74,0,0,0-.75,1.28c3.29,1.92,7.38.55,9.62-2.32,2.6-3.34,2.75-7.71,2.29-11.76a.75.75,0,0,0-1.39-.37,13.46,13.46,0,0,1-7.92,5.77.74.74,0,0,0,.39,1.43Z" transform="translate(-97.07 -106.75)"/><path class="cls-5" d="M511.4,590.78a13.21,13.21,0,0,1-12.29-14.51l-1.12.64a21.51,21.51,0,0,1,12.2,13.94.74.74,0,0,0,1.43-.4,22.87,22.87,0,0,0-12.88-14.82.76.76,0,0,0-1.12.64,14.68,14.68,0,0,0,13.78,16c1,.07,1-1.42,0-1.49Z" transform="translate(-97.07 -106.75)"/><path class="cls-5" d="M567.76,684.61c3.3-7.26-.25-14.75-1.75-22a25.11,25.11,0,0,1,.68-12.41c1.09-3.75,2.57-7.41,3.17-11.28s.4-7.79-1.6-11.21a.74.74,0,0,0-1.28.75c5,8.6-2,18.39-2.92,27.12-.49,4.83,1,9.46,2.24,14.07s2.23,9.66.18,14.17c-.39.86.89,1.62,1.28.75Z" transform="translate(-97.07 -106.75)"/><path class="cls-5" d="M565.2,651.81a27.1,27.1,0,0,0-8.15-7.95.75.75,0,0,0-1.12.64,21.54,21.54,0,0,0,7.77,18.62c.74.6,1.8-.45,1.06-1a20.19,20.19,0,0,1-7.34-17.57l-1.12.64a25.43,25.43,0,0,1,7.61,7.43c.53.79,1.82,0,1.29-.76Z" transform="translate(-97.07 -106.75)"/><path class="cls-5" d="M568.2,627.38l-8.78-3.94c-.44-.2-1.2,0-1.12.64.4,3.07,1.1,6.33,3.28,8.67,1.88,2,5,3.21,7.64,2.15a.78.78,0,0,0,.52-.92.77.77,0,0,0-.92-.52,5.75,5.75,0,0,1-6.28-1.88c-1.81-2-2.41-4.89-2.75-7.5l-1.12.64,8.78,3.95a.78.78,0,0,0,1-.27.75.75,0,0,0-.27-1Z" transform="translate(-97.07 -106.75)"/><path class="cls-5" d="M569.06,628.06a6.42,6.42,0,0,1,.34-2.82,5.68,5.68,0,0,1,1.25-1.47c.44-.47.87-1,1.34-1.4,2.22-2,4.71-3.85,7-5.75l-1.27-.53c.36,3.36.58,7-.9,10.19-1.21,2.56-3.62,4.75-6.56,4.82a.75.75,0,0,0,0,1.49,9.21,9.21,0,0,0,7.64-5.15c1.84-3.46,1.72-7.56,1.31-11.35a.75.75,0,0,0-1.27-.52l-3.91,3.17a40.17,40.17,0,0,0-3.73,3.16,10,10,0,0,0-2.39,3,8.13,8.13,0,0,0-.39,3.21c0,1,1.52,1,1.49,0Z" transform="translate(-97.07 -106.75)"/><path class="cls-5" d="M570.14,674c-1.42-2,0-4.44,1.45-6,1.81-1.88,3.84-3.58,5.76-5.35l-1.25-.33c1.12,2.91,2.5,6.49.76,9.45-1.44,2.47-4.65,3-7.24,3.31-.94.11-1,1.6,0,1.48,3.09-.36,6.59-1,8.42-3.85,2.14-3.33.78-7.42-.5-10.78a.76.76,0,0,0-1.25-.33l-3.45,3.17a30.29,30.29,0,0,0-3.06,3c-1.54,1.92-2.46,4.72-.93,6.93.55.78,1.84,0,1.29-.75Z" transform="translate(-97.07 -106.75)"/></g></svg>