<svg id="circle" xmlns="http://www.w3.org/2000/svg" viewBox="0 0 1366 768"><defs><style>.cls-1{fill:#ffe2db;}</style></defs><title>circle</title><path class="cls-1" d="M986.82,421.21c-1.1,33-6.39,66.76-16.9,98.08-11.19,33.31-29.15,63.17-54,88.07C893.7,629.61,867.06,647.82,839,661.9a408.13,408.13,0,0,1-91.76,33.41c-32.13,7.35-65.73,11.11-98.68,8.7-34.93-2.57-68.77-11-99.92-27.3-16.35-8.54-31.16-19.63-45.38-31.3-13.17-10.79-26-22.25-38.07-34.22-13.14-13-25.34-27.51-34.4-43.67a198.29,198.29,0,0,1-19.71-50.87c-8.69-36.59-8.28-74.32-4.74-111.52q2.56-26.92,6.12-53.78c2.6-19.76,5.49-39.55,11.7-58.56A224.07,224.07,0,0,1,476,207.19c3.5-3.63,7.13-7.13,10.85-10.5a236.7,236.7,0,0,1,63.22-52.46C582.35,126,618.17,116.14,655,113.16c71.64-5.81,140.37,21.19,199.17,60.21A510.05,510.05,0,0,1,899.54,207a244.42,244.42,0,0,1,36.92,39c18.68,24.36,31.82,53.13,39.91,82.67A313.24,313.24,0,0,1,986.82,421.21Z"/></svg>