<svg id="Layer_1" data-name="Layer 1" xmlns="http://www.w3.org/2000/svg" viewBox="0 0 2195 641.48"><defs><style>.cls-1{fill:#fb9475;}.cls-2{fill:#fbc4b3;}.cls-3{fill:#f6a41e;}</style></defs><title>menu-img</title><path class="cls-1" d="M2201,41V269.18C2050.07,355.11,1878.81,398.89,1708.27,395c-98.81-2.24-196.67-20.08-294.12-37.87-29.2-5.34-58.43-10.68-87.62-16.42-42.37-8.33-84.61-17.51-126.34-28.68a1074.23,1074.23,0,0,1-112.87-36.47c-98.67-38.42-193-96.38-263-180.3,35.35-2.22,70.68-2.22,105.89,2.26,116.44,14.79,221.85,77.18,333.09,113.27,36.14,11.74,72.92,20.7,110.87,24.37,80.71,7.79,161.2-9.05,240.17-28.92,11.65-2.93,23.25-5.93,34.82-8.91l289-74.68C2027,99.72,2116.7,76.42,2201,41Z"/><path class="cls-2" d="M2201,0V42.16c-84.3,35.45-174,58.75-262.87,81.71l-289,74.68c-12.48,3.22-25,6.46-37.56,9.6h0c-78.08,19.56-157.65,35.93-237.4,28.23-37.5-3.62-73.8-12.39-109.51-23.92-111.75-36-217.54-98.86-334.45-113.72-35.21-4.48-70.54-4.48-105.89-2.26-59.82,3.78-119.78,14-179.59,19.67C424.63,137.21,199.09,96.22.08,0Z"/><path class="cls-3" d="M2201,267.18V612.86c-24.92,6.26-52.24,2.45-78.09-1.55Q1973.48,588.22,1824,565.1c-84.56-13.08-170.13-26.45-248.91-59.87-41.16-17.46-80.2-40.28-122.94-53.43-50.22-15.44-104.05-17-153.63-34.45-48.57-17-95.33-56.31-98.35-107.29,41.73,11.17,84,20.35,126.34,28.68,29.19,5.74,58.42,11.08,87.62,16.42C1511.6,373,1609.46,390.79,1708.27,393,1878.81,396.89,2050.07,353.11,2201,267.18Z"/></svg>