<svg id="fullname" xmlns="http://www.w3.org/2000/svg" viewBox="0 0 1366 768"><defs><style>.cls-1{fill:#f7b000;}</style></defs><title>full-name-1</title><path class="cls-1" d="M156.29,244.12h13.5V247h-67.5v-2.88h14.4v-117l-16-9.71h71.64l-16,9.71Zm95.21,0V247H197l-38.87-62.1,47-58-16-9.53h56.34l-60.3,38.87,57.42,87.84Z"/><path class="cls-1" d="M344,244.12V247H299V236.74c-8.46,7.2-18,12.06-27.9,12.06-11.69,0-19.61-6.66-19.61-18,0-16.56,17.64-27.54,47.51-30.78,0-19.8-7.92-29.7-21.6-29.7-8.09,0-13.67,2.16-19.79,6.84l-.9-.9c12.24-13.68,25.55-21.06,43.55-21.06,22.68,0,34.74,13,34.74,39.06v49.86Zm-45-9.9V202.36c-10.8,3.06-14.94,9.9-14.94,19.44,0,8.46,3.6,13,10.8,13A20.07,20.07,0,0,0,299,234.22Z"/><path class="cls-1" d="M351.77,203.8c.18-26.46,19.08-48.6,49.67-48.6,10.26,0,19.26,1.44,31,5.76l-7,50.22h-.18c-16.74-31.68-32.4-49-43.19-49-4.5,0-7.2,3.24-7.2,9.72,0,29,28.43,59.58,53.81,59.58a15.69,15.69,0,0,0,5.4-.72l.18.18c-8.1,12.24-21.24,17.82-37.26,17.82C372.47,248.8,351.59,231.52,351.77,203.8Z"/><path class="cls-1" d="M442.31,244.12h9v-65.7l-10.26-8.82,46.25-16.2v90.72h9V247h-54Zm7-113.94c0-11.87,7.2-20,20-20s20,8.1,20,20c0,12.06-7.2,20.16-20,20.16S449.33,142.24,449.33,130.18Z"/><path class="cls-1" d="M588.46,230.8c-7.56,11.52-19.62,18-36.36,18-25.38,0-46.26-17.64-46.26-45.54,0-26.28,17.64-48.06,46.44-48.06,16.92,0,28.62,9.9,28.62,23,0,14.94-11.52,28.08-33.12,36.18C558,224.5,571,231.16,583.06,231.16a24.44,24.44,0,0,0,5.22-.54Zm-60.3-58.68c0,14.94,7.74,30.06,18.54,41.22,5-6.48,7-13.68,7-22.86,0-15.66-10.44-29-18.18-29C530.86,161.5,528.16,165.46,528.16,172.12Z"/><path class="cls-1" d="M634.9,177.88c0-38.7,25.92-64.07,65.34-64.07,18.54,0,34,4.14,47.16,11L731.56,187.6h-.18c-27.36-53.46-41.76-65.52-54.54-65.52-7.92,0-14,6.13-14,20.52,0,45.9,37.44,83.52,75.78,83.52,5,0,11.34-.72,14.76-2.34l.18.18c-8.64,15.48-28.26,26.64-50,26.64C662.08,250.6,634.9,220.36,634.9,177.88Z"/><path class="cls-1" d="M758.92,201.46c0-25.74,20.16-46.26,49.5-46.26,29.7,0,51.12,18,51.12,46.26,0,26.28-16.74,47.34-50.94,47.34C782.68,248.8,758.92,230.44,758.92,201.46Zm77.22,31.68c0-15.12-30.24-71.46-46.08-71.46-4.5,0-7.2,3.24-7.2,8.82,0,17.64,31.14,71.82,45.9,71.82C833.62,242.32,836.14,239.26,836.14,233.14Z"/><path class="cls-1" d="M872.14,201.46c0-25.74,20.16-46.26,49.5-46.26,29.7,0,51.12,18,51.12,46.26,0,26.28-16.74,47.34-50.94,47.34C895.9,248.8,872.14,230.44,872.14,201.46Zm77.22,31.68c0-15.12-30.24-71.46-46.08-71.46-4.5,0-7.2,3.24-7.2,8.82,0,17.64,31.14,71.82,45.9,71.82C946.84,242.32,949.36,239.26,949.36,233.14Z"/><path class="cls-1" d="M1090.84,197.86c0,31.68-17.46,50.94-41.76,50.94a39.2,39.2,0,0,1-21.6-6.48v46.8h14.4V292h-59.4v-2.88h9V178.42l-10.26-8.82,46.26-16.2v17.82c9.54-9.72,20.7-16,31.32-16C1077,155.2,1090.84,170,1090.84,197.86Zm-38.52,10.26c0-24.12-5.22-36.18-17.28-36.18a18.63,18.63,0,0,0-7.56,1.8v65.52a15.44,15.44,0,0,0,8.82,2.7C1045.66,242,1052.32,229.72,1052.32,208.12Z"/><path class="cls-1" d="M1186.05,230.8c-7.55,11.52-19.61,18-36.35,18-25.38,0-46.26-17.64-46.26-45.54,0-26.28,17.64-48.06,46.44-48.06,16.92,0,28.62,9.9,28.62,23,0,14.94-11.52,28.08-33.12,36.18,10.26,10.08,23.22,16.74,35.28,16.74a24.5,24.5,0,0,0,5.22-.54Zm-60.29-58.68c0,14.94,7.74,30.06,18.54,41.22,5-6.48,7-13.68,7-22.86,0-15.66-10.44-29-18.18-29C1128.46,161.5,1125.76,165.46,1125.76,172.12Z"/><path class="cls-1" d="M1269.94,155.56v47.7h-.19c-18.71-20.7-27.17-25.38-33.47-24.3v65.16h13.5V247h-58.5v-2.88h9V178.78L1190,170l46.26-15.48V177c10.26-13.5,22-22,30.24-22A10.48,10.48,0,0,1,1269.94,155.56Z"/></svg>