<?xml version="1.0" encoding="utf-8"?>
<!-- Generator: Adobe Illustrator 24.0.1, SVG Export Plug-In . SVG Version: 6.00 Build 0)  -->
<svg version="1.1" id="Layer_1" xmlns="http://www.w3.org/2000/svg" xmlns:xlink="http://www.w3.org/1999/xlink" x="0px" y="0px"
	 viewBox="0 0 924 102.5" style="enable-background:new 0 0 924 102.5;" xml:space="preserve">
<style type="text/css">
	.st0{fill:#FBC4B3;}
</style>
<g>
	<path class="st0" d="M924,0v17.7C888.6,32.6,850.9,42.4,813.7,52c-40.4,10.5-80.9,20.9-121.3,31.3c-5.2,1.4-10.5,2.7-15.8,4
		c0,0,0,0,0,0c-32.8,8.2-66.2,15.1-99.7,11.8c-15.7-1.5-31-5.2-46-10C484,74.1,439.6,47.7,390.5,41.5c-14.8-1.9-29.6-1.9-44.4-1
		c-25.1,1.6-50.3,5.9-75.4,8.3C178.3,57.6,83.6,40.4,0.1,0H924z"/>
</g>
</svg>
