<svg id="Layer_1" data-name="Layer 1" xmlns="http://www.w3.org/2000/svg" viewBox="0 0 585 157.48"><defs><style>.cls-1{fill:#fb9475;}</style></defs><title>nav2</title><path class="cls-1" d="M585,3.2V99c-63.36,36.07-135.25,54.45-206.84,52.83-41.48-.94-82.56-8.43-123.47-15.9-12.26-2.24-24.53-4.48-36.78-6.89-17.79-3.5-35.52-7.35-53-12a451.48,451.48,0,0,1-47.38-15.31C76.07,85.56,36.49,61.23,7.09,26A235,235,0,0,1,51.54,27c48.88,6.21,93.13,32.4,139.83,47.55,15.17,4.93,30.61,8.69,46.54,10.23,33.88,3.27,67.67-3.8,100.82-12.14,4.89-1.23,9.76-2.49,14.62-3.74L474.65,37.5C511.94,27.86,549.61,18.08,585,3.2Z"/></svg>