<svg id="Layer_1" data-name="Layer 1" xmlns="http://www.w3.org/2000/svg" viewBox="0 0 479 570"><defs><style>.cls-1{fill:#faff73;}</style></defs><title>sun</title><path class="cls-1" d="M239.5,144A140.5,140.5,0,1,0,380,284.5,140.49,140.49,0,0,0,239.5,144ZM284,228.5A11.5,11.5,0,0,1,295.5,240c0,.17,0,.34,0,.5a11.5,11.5,0,0,1-23,0c0-.16,0-.33,0-.5A11.5,11.5,0,0,1,284,228.5Zm-85.5-.5A11.5,11.5,0,0,1,210,239.5c0,.34,0,.67,0,1a11.5,11.5,0,0,1-22.92,0c0-.33,0-.66,0-1A11.5,11.5,0,0,1,198.5,228ZM313.85,342.08c-7.09,19.69-20.41,38.12-38.91,48.46a62.26,62.26,0,0,1-30.68,8A71.3,71.3,0,0,1,211,389.7c-21-11.36-35.22-31.73-43.36-53.78-9.41-25.44-10.84-52.91-11.45-79.77,0-1.93,3-1.93,3,0q.12,5.06.28,10.12c.88,25.55,3.36,51.69,13.67,75.39,9.19,21.09,24.64,39.85,46.32,48.76a64.24,64.24,0,0,0,33,4.66,62.1,62.1,0,0,0,27.76-11.47c17.22-12.43,28.41-31.83,33.77-52.1,6.71-25.39,5.55-52,4.42-78-.09-1.94,2.91-1.93,3,0,.14,3.25.28,6.5.4,9.75C322.81,289.61,322.9,317,313.85,342.08Z"/><path class="cls-1" d="M210,240.5a11.5,11.5,0,0,1-22.92,0Z"/><path class="cls-1" d="M295.49,240.5a11.5,11.5,0,0,1-23,0Z"/></svg>